<!-- Generated by IcoMoon.io -->
<svg version="1.1" xmlns="http://www.w3.org/2000/svg" width="32" height="32" viewBox="0 0 768 768">
<title></title>
<g id="icomoon-ignore">
</g>
<path fill="#3b3b3b" d="M316.5 619.5l-223.5-43.5 12-64.5 157.5 31.5 51-259.5-58.5 22.5v109.5h-63v-150l166.5-70.5q4.5 0 12.75-1.5t12.75-1.5q31.5 0 54 31.5l31.5 51q43.5 76.5 138 76.5v64.5q-106.5 0-175.5-79.5l-19.5 96 67.5 63v240h-64.5v-192l-67.5-63zM432 175.5q-25.5 0-45-19.5t-19.5-45 19.5-44.25 45-18.75 44.25 18.75 18.75 44.25-18.75 45-44.25 19.5z"></path>
</svg>
