<!-- Generated by IcoMoon.io -->
<svg version="1.1" xmlns="http://www.w3.org/2000/svg" width="48" height="48" viewBox="0 0 48 48">
<title>mail2</title>
<path fill="#797f84" d="M40 0h-31.999c-4.4 0-8.001 3.6-8.001 8.001v31.998c0 4.403 3.601 8.001 8.001 8.001h31.999c4.4 0 8-3.598 8-8.001v-31.998c0-4.401-3.599-8.001-8-8.001zM40 6c0.374 0 0.729 0.109 1.032 0.297l-17.033 14.081-17.032-14.081c0.304-0.188 0.658-0.297 1.033-0.297h31.999zM8.001 42c-0.090 0-0.179-0.007-0.266-0.019l10.576-14.67-1.371-1.371-10.939 10.939v-28.647l18 21.769 18-21.768v28.647l-10.939-10.939-1.371 1.371 10.576 14.67c-0.087 0.012-0.176 0.019-0.265 0.019h-31.999z"></path>
</svg>
